<svg xmlns="http://www.w3.org/2000/svg" width="1200" height="630" viewBox="0 0 1200 630">
  <defs>
    <linearGradient id="bg" x1="0" y1="0" x2="1" y2="1">
      <stop offset="0" stop-color="#0d1117"/>
      <stop offset="1" stop-color="#11161d"/>
    </linearGradient>
    <radialGradient id="glow1" cx="18%" cy="0%" r="60%">
      <stop offset="0" stop-color="#3ddc97" stop-opacity="0.18"/>
      <stop offset="1" stop-color="#3ddc97" stop-opacity="0"/>
    </radialGradient>
    <radialGradient id="glow2" cx="100%" cy="20%" r="55%">
      <stop offset="0" stop-color="#ff7eb6" stop-opacity="0.16"/>
      <stop offset="1" stop-color="#ff7eb6" stop-opacity="0"/>
    </radialGradient>
  </defs>

  <rect width="1200" height="630" fill="url(#bg)"/>
  <rect width="1200" height="630" fill="url(#glow1)"/>
  <rect width="1200" height="630" fill="url(#glow2)"/>

  <!-- 외곽 라운드 보더 -->
  <rect x="20" y="20" width="1160" height="590" rx="28" fill="none" stroke="#263041" stroke-width="2"/>

  <!-- 상단 프롬프트 -->
  <text x="70" y="72" font-family="monospace" font-size="30" fill="#3ddc97" font-weight="bold">&gt;_ ~/jamo-wordle</text>

  
    <rect x="328" y="96" width="96" height="96" rx="18" fill="#3ddc97" stroke="rgba(255,255,255,0.08)" stroke-width="2"/>
    <path d="M394.04 158.54L385.93 158.54L385.93 136.08L355.72 136.08L355.72 128.63L394.04 128.63" fill="#06231a"/>
    <rect x="440" y="96" width="96" height="96" rx="18" fill="#ffcf5c" stroke="rgba(255,255,255,0.08)" stroke-width="2"/>
    <path d="M501.90 142.95L492.78 142.95L492.78 170.53L485.21 170.53L485.21 112.13L492.78 112.13L492.78 136.56L501.90 136.56" fill="#2e2205"/>
    <rect x="552" y="96" width="96" height="96" rx="18" fill="#323b49" stroke="rgba(255,255,255,0.08)" stroke-width="2"/>
    <path d="M617.98 157.78L581.14 157.78L581.14 128.75L617.98 128.75L617.98 157.78M609.93 150.40L609.93 136.14L589.16 136.14L589.16 150.40" fill="#79879a"/>
    <rect x="664" y="96" width="96" height="96" rx="18" fill="#3ddc97" stroke="rgba(255,255,255,0.08)" stroke-width="2"/>
    <path d="M735.43 152.46L730.53 159.51Q725.53 158.18 720.37 154.86Q715.21 151.55 712.12 147.55Q705.79 155.54 693.96 159.51L688.57 152.52Q696.35 151.15 701.75 146.67Q707.16 142.19 707.55 138.26L707.61 137.26L691.41 137.26L691.35 129.63L708.03 129.63L708.03 122.18L716.27 122.18L716.27 129.63L732.89 129.63L732.89 137.26L716.45 137.26L716.54 138.20Q716.90 141.92 722.31 146.54Q727.71 151.15 735.43 152.46" fill="#06231a"/>
    <rect x="776" y="96" width="96" height="96" rx="18" fill="#ffcf5c" stroke="rgba(255,255,255,0.08)" stroke-width="2"/>
    <path d="M836.26 170.53L828.69 170.53L828.69 143.77L822.46 143.77L822.46 168.80L814.95 168.80L814.95 113.31L822.46 113.31L822.46 137.38L828.69 137.38L828.69 112.13L836.26 112.13" fill="#2e2205"/>

  <!-- 타이틀/서브/설명 (벡터 path) -->
  <path d="M343.36 269.32L321.75 269.32L321.75 313.63L303.52 313.63L303.52 211.90L321.75 211.90L321.75 253.87L343.36 253.87L343.36 269.32M288.65 268.15L289.82 283.60Q264.18 285.43 214.38 285.43L214.38 220.91L283.37 220.91L283.37 236.51L232.69 236.51L232.69 269.98Q267.85 269.98 288.65 268.15M325.71 348.28L233.42 348.28L233.42 299.64L251.88 299.64L251.88 332.82L325.71 332.82L325.71 348.28M461.13 277.30L436.52 277.30Q434.69 297.15 424.84 307.99Q414.99 318.83 399.76 318.83Q382.91 318.83 372.73 305.58Q362.55 292.32 362.55 269.83Q362.55 246.98 372.69 233.95Q382.84 220.91 399.76 220.91Q415.06 220.91 424.91 231.78Q434.77 242.66 436.52 261.85L461.13 261.85L461.13 211.90L479.30 211.90L479.30 353.18L461.13 353.18L461.13 277.30M399.76 236.51Q391.33 236.51 385.95 245.55Q380.57 254.60 380.57 269.98Q380.57 285.29 386.17 294.33Q391.77 303.38 399.76 303.38Q407.89 303.38 413.45 294.37Q419.02 285.36 419.02 269.98Q419.02 254.53 413.67 245.52Q408.33 236.51 399.76 236.51M631.20 271.45L620.07 284.48Q604.10 276.21 594.58 262Q586.52 276.13 568.43 288.73L555.83 276.28Q568.21 270.71 576.34 260.72Q584.47 250.72 585.28 240.10L560.96 240.10L560.96 224.79L585.28 224.79L585.28 210.21L603.59 210.21L603.59 224.79L627.69 224.79L627.69 240.10L603.59 240.10Q604.17 249.77 612.23 258.99Q620.29 268.22 631.20 271.45M683.35 283.90L665.19 283.90L665.19 261.70L654.13 261.70L654.13 283.90L636.11 283.90L636.11 214.76L654.13 214.76L654.13 246.25L665.19 246.25L665.19 211.90L683.35 211.90L683.35 283.90M686.79 350.18L592.90 350.18L592.90 312.68L665.19 312.68L665.19 305.21L592.90 305.21L592.90 289.90L683.35 289.90L683.35 326.52L611.06 326.52L611.06 334.73L686.79 334.73L686.79 350.18M829.61 312.83L811.60 312.83L811.60 211.90L829.61 211.90L829.61 312.83M797.39 274.59L799.58 289.61Q786.11 291.66 773.36 292.14Q760.62 292.61 720.12 292.61L720.12 247.93L769.78 247.93L769.78 233.36L720.12 233.36L720.12 218.34L787.94 218.34L787.94 262.58L738.13 262.58L738.13 277.60Q767.94 277.60 778.75 277.08Q789.55 276.57 797.39 274.59M832.91 348.28L739.01 348.28L739.01 301.62L757.47 301.62L757.47 332.82L832.91 332.82L832.91 348.28M978.88 353.18L960.86 353.18L960.86 211.90L978.88 211.90L978.88 353.18M948.41 304.77L936.25 318.25Q915.82 303.53 904.47 284.04Q889.97 309.60 872.83 320.96L859.35 309.24Q872.83 302.65 884 286.42Q895.17 270.20 895.17 254.23L895.17 239.22L864.55 239.22L864.55 223.76L943.43 223.76L943.43 239.22L913.48 239.22L913.48 253.72Q913.48 268.74 924.10 283.31Q934.72 297.89 948.41 304.77" fill="#d7e2ee"/>
  <path d="M436.44 381.94L436.44 402.26Q436.44 408.76 433.50 412.17Q430.55 415.58 425.28 415.58Q423.01 415.58 420.96 414.78L420.96 408.73Q422.69 410.01 424.94 410.01Q430.06 410.01 430.06 402.04L430.06 381.94L436.44 381.94M460 381.94L472.04 415L465.05 415L462.38 407.09L449.96 407.09L447.36 415L440.37 415L452.61 381.94L460 381.94M451.44 402.02L460.79 402.02L456.74 390.05Q456.50 389.33 456.23 387.31L456.07 387.31Q455.89 388.81 455.51 390L451.44 402.02M512.87 415L506.54 415L506.54 394.52Q506.54 392.27 506.81 387.64L506.67 387.64Q506.11 390.47 505.64 391.69L496.88 415L492.01 415L483.14 391.89Q482.80 390.99 482.10 387.64L481.95 387.64Q482.19 391.30 482.19 395.59L482.19 415L476.38 415L476.38 381.94L485.58 381.94L493.31 402.53Q494.28 405.09 494.59 407.07L494.75 407.07Q495.24 405.12 496.14 402.49L503.93 381.94L512.87 381.94L512.87 415M518.65 398.90Q518.65 391.10 523.13 386.25Q527.61 381.40 535.04 381.40Q542.10 381.40 546.40 386.10Q550.70 390.81 550.70 398.18Q550.70 405.95 546.26 410.77Q541.83 415.58 534.53 415.58Q527.43 415.58 523.04 410.89Q518.65 406.20 518.65 398.90M525.38 398.54Q525.38 403.57 527.87 406.79Q530.35 410.01 534.62 410.01Q539.04 410.01 541.50 406.95Q543.96 403.88 543.96 398.63Q543.96 393.21 541.58 390.09Q539.20 386.97 534.84 386.97Q530.44 386.97 527.91 390.24Q525.38 393.50 525.38 398.54M624.30 381.94L630.82 381.94L621.92 415L614.76 415L608.89 392.94Q608.47 391.35 608.36 389.33L608.27 389.33Q608.02 391.64 607.68 392.92L601.68 415L594.29 415L585.31 381.94L592.34 381.94L597.66 404.96Q598 406.44 598.14 408.58L598.29 408.58Q598.36 407 598.94 404.87L605.32 381.94L612.06 381.94L617.95 405.12Q618.22 406.20 618.46 408.53L618.58 408.53Q618.69 406.71 619.09 404.98L624.30 381.94M633.15 398.90Q633.15 391.10 637.63 386.25Q642.11 381.40 649.55 381.40Q656.60 381.40 660.90 386.10Q665.20 390.81 665.20 398.18Q665.20 405.95 660.77 410.77Q656.33 415.58 649.03 415.58Q641.93 415.58 637.54 410.89Q633.15 406.20 633.15 398.90M639.89 398.54Q639.89 403.57 642.37 406.79Q644.85 410.01 649.12 410.01Q653.55 410.01 656.01 406.95Q658.47 403.88 658.47 398.63Q658.47 393.21 656.08 390.09Q653.70 386.97 649.35 386.97Q644.94 386.97 642.42 390.24Q639.89 393.50 639.89 398.54M691.26 405.18L697.50 415L690.09 415L684.83 406.26Q683.24 403.61 682.12 402.78Q680.99 401.95 679.69 401.95L677.36 401.95L677.36 415L670.95 415L670.95 381.94L682.18 381.94Q693.64 381.94 693.64 390.88Q693.64 394.16 691.72 396.57Q689.80 398.99 686.25 400L686.25 400.09Q688.52 400.85 691.26 405.18M681.29 386.92L677.36 386.92L677.36 396.94L681.17 396.94Q683.78 396.94 685.34 395.43Q686.90 393.91 686.90 391.64Q686.90 386.92 681.29 386.92M711.86 415L701.03 415L701.03 381.94L711.99 381.94Q729.55 381.94 729.55 398.06Q729.55 405.75 724.60 410.37Q719.65 415 711.86 415M711.52 387.26L707.43 387.26L707.43 409.70L711.47 409.70Q716.80 409.70 719.81 406.61Q722.82 403.52 722.82 398.15Q722.82 392.88 719.81 390.07Q716.80 387.26 711.52 387.26M754.24 409.70L754.24 415L735.33 415L735.33 381.94L741.73 381.94L741.73 409.70L754.24 409.70M778.03 409.70L778.03 415L758.89 415L758.89 381.94L777.28 381.94L777.28 387.26L765.29 387.26L765.29 395.68L776.43 395.68L776.43 400.98L765.29 400.98L765.29 409.70" fill="#3ddc97"/>
  <path d="M386.46 503.05L380.78 503.05L380.78 513.89L377.87 513.89L377.87 485.84L380.78 485.84L380.78 500.39L386.46 500.39L386.46 503.05M373.95 493.48L351.54 493.48L351.54 490.88L361.27 490.88L361.27 486L364.24 486L364.24 490.88L373.95 490.88L373.95 493.48M362.75 509.69Q358.50 509.69 356.01 507.63Q353.52 505.57 353.52 502.56Q353.52 499.59 356.01 497.54Q358.50 495.49 362.79 495.49Q367.07 495.49 369.57 497.53Q372.07 499.57 372.07 502.56Q372.07 505.53 369.56 507.61Q367.05 509.69 362.75 509.69M362.79 497.97Q359.82 497.97 358.11 499.26Q356.39 500.55 356.39 502.56Q356.39 504.59 358.12 505.90Q359.84 507.21 362.79 507.21Q365.74 507.21 367.47 505.90Q369.20 504.59 369.20 502.56Q369.20 500.55 367.48 499.26Q365.76 497.97 362.79 497.97M381.95 522.83L357.87 522.83L357.87 512.40L360.74 512.40L360.74 520.23L381.95 520.23L381.95 522.83M426.23 502.29L391.27 502.29L391.27 499.69L417.46 499.69Q417.71 497.60 417.71 489.69L397.11 489.69L397.11 487.07L420.63 487.07Q420.63 495.92 420.31 499.69L426.23 499.69L426.23 502.29M421.46 522.40L397.23 522.40L397.23 513.05L417.56 513.13L417.56 509.08L397.23 509.08L397.23 506.48L420.43 506.48L420.43 515.61L400.12 515.61L400.12 519.84L421.46 519.84L421.46 522.40M481.17 503.75L474.65 503.75L474.65 523.52L471.74 523.52L471.74 485.84L474.65 485.84L474.65 501.15L481.17 501.15L481.17 503.75M467.81 512.13L465.78 514.32Q462.99 512.19 460.36 508.67Q457.73 505.16 456.86 502.36Q456.09 505.04 453.52 508.69Q450.94 512.34 447.81 514.84L445.57 512.91Q449.69 510.20 452.51 505.22Q455.33 500.25 455.33 495.68L455.33 491.72L446.97 491.72L446.97 489.12L466.41 489.12L466.41 491.72L458.20 491.72L458.20 495.49Q458.20 500.08 461.04 504.79Q463.87 509.49 467.81 512.13M487.19 509.73Q486.74 509.73 486.35 509.55Q485.96 509.38 485.66 509.08Q485.37 508.79 485.21 508.39Q485.04 507.99 485.04 507.54Q485.04 507.09 485.21 506.69Q485.37 506.29 485.66 506Q485.96 505.70 486.35 505.53Q486.74 505.35 487.19 505.35Q487.64 505.35 488.03 505.53Q488.42 505.70 488.71 506Q489 506.29 489.17 506.69Q489.34 507.09 489.34 507.54Q489.34 507.97 489.17 508.37Q489 508.77 488.71 509.07Q488.42 509.38 488.03 509.55Q487.64 509.73 487.19 509.73M499.88 489.36L523.20 489.36L523.20 506.41L513.05 506.41L513.05 515.20L529.04 515.20L529.04 517.83L494.08 517.83L494.08 515.20L510.08 515.20L510.08 506.41L499.88 506.41L499.88 489.36M502.85 503.75L520.27 503.75L520.27 491.99L502.85 491.99L502.85 503.75M551.56 500.61Q545.88 500.61 542.80 498.58Q539.73 496.56 539.73 493.32Q539.73 490.08 542.80 488.06Q545.88 486.04 551.56 486.04Q557.25 486.04 560.32 488.06Q563.40 490.08 563.40 493.32Q563.40 496.56 560.32 498.58Q557.25 500.61 551.56 500.61M551.56 488.52Q547.34 488.52 545.07 489.80Q542.79 491.09 542.79 493.32Q542.79 495.55 545.07 496.84Q547.34 498.13 551.56 498.13Q555.78 498.13 558.06 496.84Q560.33 495.55 560.33 493.32Q560.33 491.09 558.06 489.80Q555.78 488.52 551.56 488.52M569.04 506.41L534.08 506.41L534.08 503.81L569.04 503.81L569.04 506.41M563.28 522.40L539.84 522.40L539.84 509.84L563.28 509.84L563.28 522.40M560.37 519.80L560.37 512.44L542.75 512.44L542.75 519.80L560.37 519.80M623.34 497.68L617.66 497.68L617.66 505.80L614.75 505.80L614.75 485.84L617.66 485.84L617.66 495.04L623.34 495.04L623.34 497.68M611.91 499.47L612.27 501.99Q608.96 502.87 591.35 502.87L591.35 487.17L594.26 487.17L594.26 500.27L596.84 500.27Q607.50 500.27 611.91 499.47M616.95 516.56L597.66 516.56L597.66 520.04L618.50 520.04L618.50 522.64L594.79 522.64L594.79 507.87L617.66 507.87L617.66 510.45L597.66 510.45L597.66 514L616.95 514L616.95 516.56M663.98 503.75L657.46 503.75L657.46 523.52L654.55 523.52L654.55 485.84L657.46 485.84L657.46 501.15L663.98 501.15L663.98 503.75M650.63 512.13L648.59 514.32Q645.80 512.19 643.17 508.67Q640.55 505.16 639.67 502.36Q638.91 505.04 636.33 508.69Q633.75 512.34 630.63 514.84L628.38 512.91Q632.50 510.20 635.32 505.22Q638.14 500.25 638.14 495.68L638.14 491.72L629.79 491.72L629.79 489.12L649.22 489.12L649.22 491.72L641.02 491.72L641.02 495.49Q641.02 500.08 643.85 504.79Q646.68 509.49 650.63 512.13M698.26 497.87L698.26 500.35L673.83 500.35L673.83 492.21L694.55 492.21L694.55 488.96L673.83 488.96L673.83 486.48L697.42 486.48L697.42 494.47L676.70 494.47L676.70 497.87L698.26 497.87M703.11 503.52L703.11 506L668.14 506L668.14 503.52L703.11 503.52M698.34 520.64L698.34 523.13L673.71 523.13L673.71 514.88L694.63 514.88L694.63 511.64L673.71 511.64L673.71 509.16L697.50 509.16L697.50 517.21L676.58 517.21L676.58 520.64L698.34 520.64M757.36 498.16L751.68 498.16L751.68 506.72L748.77 506.72L748.77 485.84L751.68 485.84L751.68 495.57L757.36 495.57L757.36 498.16M741.64 504.39L724.41 504.39L724.41 487.91L741.64 487.91L741.64 504.39M738.77 501.84L738.77 490.49L727.29 490.49L727.29 501.84L738.77 501.84M754.04 520.31L752.36 522.68Q748.65 522.13 744.72 519.77Q740.78 517.40 739.20 514.88Q737.62 517.46 733.73 519.79Q729.84 522.11 726.05 522.68L724.38 520.31Q729.22 519.82 733.12 517.12Q737.01 514.41 737.62 511.45L726.37 511.45L726.37 508.85L752.05 508.85L752.05 511.45L740.76 511.45Q741.43 514.36 745.36 517.09Q749.30 519.82 754.04 520.31M787.40 499.65L785.61 502.07Q782.75 501.60 779.75 499.80Q776.74 498.01 775.61 496.11Q774.69 497.99 771.59 500Q768.50 502.01 765.53 502.75L763.65 500.49Q767.44 499.94 770.50 497.72Q773.55 495.51 774 492.79L765.14 492.79L765.14 490.20L774.12 490.20L774.12 485.80L777.09 485.80L777.09 490.20L785.76 490.20L785.76 492.79L777.17 492.79Q777.60 495.25 780.46 497.21Q783.32 499.16 787.40 499.65M790.92 514.36L782.05 514.36L782.05 511.76L790.92 511.76L790.92 485.84L793.85 485.84L793.85 523.52L790.92 523.52L790.92 514.36M776.76 522.44L773.85 522.44L773.85 508.01Q766.76 508.16 762.62 508.16L762.32 505.61Q778.07 505.61 788.05 505.04L788.20 507.56Q787.52 507.64 776.76 507.97L776.76 522.44M838.05 504.36L831.52 504.36L831.52 523.52L828.61 523.52L828.61 485.84L831.52 485.84L831.52 501.72L838.05 501.72L838.05 504.36M804.73 515.04L804.73 500.20L818.46 500.20L818.46 491.84L804.73 491.84L804.73 489.24L821.37 489.24L821.37 502.75L807.66 502.75L807.66 512.48Q821.05 512.48 825.08 511.64L825.49 514.20Q820.21 515.04 804.73 515.04M843.79 491.25L847.03 491.25L846.68 511.97L844.14 511.97L843.79 491.25M843.32 518.24Q843.32 517.32 843.96 516.70Q844.61 516.07 845.45 516.07Q846.29 516.07 846.94 516.72Q847.60 517.36 847.60 518.24Q847.60 519.04 846.98 519.70Q846.37 520.35 845.55 520.35Q844.57 520.35 843.95 519.73Q843.32 519.10 843.32 518.24" fill="#8b98a9"/>

  
<g transform="translate(980,395) scale(2.1)">
  <rect x="4" y="8" width="56" height="48" rx="16" fill="#161b22" stroke="#3ddc97" stroke-width="2.5"/>
  <circle cx="14" cy="17" r="2.4" fill="#ff7eb6"/>
  <circle cx="22" cy="17" r="2.4" fill="#ffb454"/>
  <circle cx="30" cy="17" r="2.4" fill="#3ddc97"/>
  <ellipse cx="17" cy="40" rx="4.5" ry="3" fill="#ff7eb6" opacity="0.55"/>
  <ellipse cx="47" cy="40" rx="4.5" ry="3" fill="#ff7eb6" opacity="0.55"/>
  <path d="M 20 33 Q 24 29 28 33" stroke="#3ddc97" stroke-width="2.6" fill="none" stroke-linecap="round"/>
  <path d="M 36 33 Q 40 29 44 33" stroke="#3ddc97" stroke-width="2.6" fill="none" stroke-linecap="round"/>
  <path d="M 22 38 Q 32 50 42 38" stroke="#3ddc97" stroke-width="2.6" fill="none" stroke-linecap="round"/>
</g>

  <!-- 하단 크레딧 (벡터 텍스트 + 초록 하트) -->
  <path d="M90.99 571.79L90.99 580L88.97 580L88.97 572.34Q88.97 570 88.26 569.02Q87.56 568.05 85.93 568.05Q84.56 568.05 83.58 569.34Q82.59 570.63 82.59 572.38L82.59 580L80.59 580L80.59 572.07Q80.59 568.05 77.49 568.05Q76.08 568.05 75.14 569.27Q74.20 570.48 74.20 572.38L74.20 580L72.18 580L72.18 566.66L74.20 566.66L74.20 568.78L74.25 568.78Q75.65 566.35 78.38 566.35Q79.67 566.35 80.71 567.10Q81.74 567.84 82.15 569.13Q83.63 566.35 86.58 566.35Q90.99 566.35 90.99 571.79M95.38 569.74L95.38 567.61Q97.33 566.35 99.87 566.35Q104.52 566.35 104.52 571.28L104.52 580L102.50 580L102.50 577.91L102.42 577.91Q101.04 580.32 98.32 580.32Q96.37 580.32 95.22 579.27Q94.07 578.22 94.07 576.47Q94.07 572.75 98.46 572.14L102.49 571.56Q102.49 568.08 99.72 568.08Q97.28 568.08 95.38 569.74M102.49 573.23L99.22 573.67Q97.66 573.87 96.91 574.43Q96.17 574.99 96.17 576.33Q96.17 577.35 96.88 577.97Q97.60 578.59 98.77 578.59Q100.38 578.59 101.43 577.45Q102.49 576.31 102.49 574.58L102.49 573.23M119.85 560.26L119.85 580L117.86 580L117.86 577.70L117.81 577.70Q116.33 580.32 113.20 580.32Q110.69 580.32 109.18 578.52Q107.68 576.72 107.68 573.64Q107.68 570.35 109.36 568.35Q111.03 566.35 113.77 566.35Q116.53 566.35 117.81 568.54L117.86 568.54L117.86 560.26L119.85 560.26M117.86 574L117.86 571.96Q117.86 570.34 116.76 569.20Q115.65 568.05 114 568.05Q112.02 568.05 110.87 569.53Q109.72 571.01 109.72 573.54Q109.72 575.84 110.81 577.22Q111.89 578.60 113.76 578.60Q115.54 578.60 116.70 577.30Q117.86 575.99 117.86 574M134.87 572.74L134.87 573.83L125.42 573.83Q125.48 576.14 126.65 577.37Q127.83 578.59 129.81 578.59Q132.09 578.59 133.97 577.08L133.97 579.01Q132.18 580.32 129.34 580.32Q126.52 580.32 124.93 578.47Q123.33 576.62 123.33 573.36Q123.33 570.33 125.08 568.34Q126.84 566.35 129.43 566.35Q132.02 566.35 133.44 568.05Q134.87 569.74 134.87 572.74M125.44 572.05L132.79 572.05Q132.79 570.19 131.90 569.13Q131 568.08 129.40 568.08Q127.89 568.08 126.80 569.16Q125.71 570.25 125.44 572.05M161.94 566.66L163.93 566.66L159.93 580L157.84 580L155.05 570.34Q154.89 569.82 154.84 569.13L154.79 569.13Q154.79 569.40 154.51 570.31L151.49 580L149.49 580L145.44 566.66L147.54 566.66L150.36 576.78Q150.49 577.23 150.54 577.96L150.64 577.96Q150.70 577.33 150.88 576.75L154 566.66L155.85 566.66L158.65 576.80Q158.75 577.16 158.84 577.98L158.96 577.98Q158.98 577.44 159.17 576.80L161.94 566.66M166.17 561.86Q166.17 561.29 166.55 560.90Q166.93 560.51 167.47 560.51Q168.05 560.51 168.43 560.91Q168.82 561.30 168.82 561.86Q168.82 562.43 168.43 562.81Q168.05 563.19 167.47 563.19Q166.93 563.19 166.55 562.82Q166.17 562.44 166.17 561.86M168.45 580L166.45 580L166.45 566.66L168.45 566.66L168.45 580M178.90 578.13L178.90 579.87Q178.14 580.29 176.96 580.29Q173.52 580.29 173.52 576.42L173.52 568.40L171.21 568.40L171.21 566.66L173.52 566.66L173.52 563.38L175.52 562.73L175.52 566.66L178.90 566.66L178.90 568.40L175.52 568.40L175.52 576.05Q175.52 577.46 175.99 578.02Q176.46 578.58 177.52 578.58Q178.32 578.58 178.90 578.13M192.76 571.79L192.76 580L190.76 580L190.76 572.31Q190.76 568.05 187.58 568.05Q186 568.05 184.91 569.29Q183.81 570.52 183.81 572.45L183.81 580L181.79 580L181.79 560.26L183.81 560.26L183.81 568.89L183.86 568.89Q185.40 566.35 188.26 566.35Q192.76 566.35 192.76 571.79" fill="#8b98a9"/><path transform="translate(204.580078125,558) scale(1.15)" d="M12 21 C12 21 3 14 3 8.5 C3 5.6 5.4 3 8.5 3 C10.3 3 12 4.4 12 4.4 C12 4.4 13.7 3 15.5 3 C18.6 3 21 5.6 21 8.5 C21 14 12 21 12 21 Z" fill="#3ddc97"/><path d="M242.83 578.04L242.78 578.04L242.78 580L240.76 580L240.76 560.26L242.78 560.26L242.78 569.02L242.83 569.02Q244.42 566.35 247.45 566.35Q250.01 566.35 251.47 568.15Q252.94 569.95 252.94 572.94Q252.94 576.32 251.28 578.32Q249.63 580.32 246.84 580.32Q244.20 580.32 242.83 578.04M242.78 572.67L242.78 574.58Q242.78 576.25 243.89 577.43Q245 578.60 246.67 578.60Q248.63 578.60 249.76 577.09Q250.88 575.58 250.88 572.88Q250.88 570.64 249.82 569.35Q248.76 568.05 247 568.05Q245.14 568.05 243.96 569.37Q242.78 570.69 242.78 572.67M264.77 566.66L266.87 566.66L260.68 582.21Q259.06 586.28 256.15 586.28Q255.46 586.28 254.83 586.13L254.83 584.29Q255.48 584.51 256.06 584.51Q257.69 584.51 258.50 582.55L259.59 579.97L254.39 566.66L256.62 566.66L260.30 577.07Q260.34 577.17 260.58 578.02L260.64 578.02L260.90 577.09L264.77 566.66M292.51 561.31L292.51 580L290.47 580L290.47 571.43L280.67 571.43L280.67 580L278.62 580L278.62 561.31L280.67 561.31L280.67 569.56L290.47 569.56L290.47 561.31L292.51 561.31M305.56 566.66L307.66 566.66L301.47 582.21Q299.85 586.28 296.94 586.28Q296.25 586.28 295.62 586.13L295.62 584.29Q296.27 584.51 296.85 584.51Q298.48 584.51 299.29 582.55L300.38 579.97L295.18 566.66L297.41 566.66L301.09 577.07Q301.13 577.17 301.37 578.02L301.43 578.02L301.69 577.09L305.56 566.66M320.66 566.66L320.66 580L318.64 580L318.64 577.89L318.59 577.89Q317.27 580.32 314.47 580.32Q309.70 580.32 309.70 574.63L309.70 566.66L311.69 566.66L311.69 574.30Q311.69 578.60 314.97 578.60Q316.57 578.60 317.60 577.42Q318.64 576.23 318.64 574.34L318.64 566.66L320.66 566.66M335.98 571.85L335.98 580L333.96 580L333.96 572.38Q333.96 568.05 330.80 568.05Q329.17 568.05 328.10 569.28Q327.03 570.50 327.03 572.40L327.03 580L325.01 580L325.01 566.66L327.03 566.66L327.03 568.89L327.08 568.89Q328.58 566.35 331.46 566.35Q333.66 566.35 334.82 567.76Q335.98 569.17 335.98 571.85M354.69 566.66L356.68 566.66L352.69 580L350.59 580L347.80 570.34Q347.65 569.82 347.59 569.13L347.54 569.13Q347.54 569.40 347.26 570.31L344.24 580L342.24 580L338.19 566.66L340.29 566.66L343.11 576.78Q343.24 577.23 343.29 577.96L343.39 577.96Q343.46 577.33 343.63 576.75L346.76 566.66L348.60 566.66L351.40 576.80Q351.50 577.16 351.59 577.98L351.71 577.98Q351.73 577.44 351.92 576.80L354.69 566.66M358.28 573.50Q358.28 570.17 360.09 568.26Q361.90 566.35 365.04 566.35Q367.96 566.35 369.64 568.19Q371.32 570.02 371.32 573.30Q371.32 576.47 369.51 578.39Q367.69 580.32 364.72 580.32Q361.81 580.32 360.05 578.44Q358.28 576.56 358.28 573.50M360.33 573.41Q360.33 575.77 361.57 577.19Q362.80 578.60 364.86 578.60Q366.99 578.60 368.13 577.24Q369.27 575.87 369.27 573.36Q369.27 570.83 368.12 569.44Q366.98 568.05 364.86 568.05Q362.79 568.05 361.56 569.49Q360.33 570.92 360.33 573.41M373.86 573.50Q373.86 570.17 375.67 568.26Q377.48 566.35 380.62 566.35Q383.54 566.35 385.22 568.19Q386.90 570.02 386.90 573.30Q386.90 576.47 385.08 578.39Q383.27 580.32 380.30 580.32Q377.39 580.32 375.63 578.44Q373.86 576.56 373.86 573.50M375.91 573.41Q375.91 575.77 377.14 577.19Q378.38 578.60 380.44 578.60Q382.57 578.60 383.71 577.24Q384.84 575.87 384.84 573.36Q384.84 570.83 383.70 569.44Q382.56 568.05 380.44 568.05Q378.37 568.05 377.14 569.49Q375.91 570.92 375.91 573.41" fill="#8b98a9"/>
</svg>